<svg xmlns="http://www.w3.org/2000/svg" xmlns:xlink="http://www.w3.org/1999/xlink" version="1.1" x="0px" y="0px" width="300px" height="300px" viewBox="0 0 300 300" enable-background="new 0 0 300 300" xml:space="preserve"><style>.style0{fill:	#FFFFFF;}.style1{fill:	#98CB5C;}</style><polygon points="149.6,284.1 48.2,236.6 48.2,235.1 48.2,205 41.5,205 41.5,205 41.4,205 27.7,190.1 27.7,115.9 27.8,115.9 27.8,90.6 48.2,90.6 48.2,45.9 149.6,11.2 251,45.9 251,90.6 271.4,90.6 271.4,115.9 271.5,115.9 271.5,190.1 257.7,205 257.7,205 257.7,205 251,205 251,235.1 251,236.6" class="style0"/><g><polygon points="58.5,54.2 149.6,24 240.6,54.2 240.6,91.2 246,91.2 246,49.2 149.6,17.9 53.2,49.2 53.2,91.2 58.5,91.2" class="style1"/><path d="M151.416 160.683h-3.146v4.84h3.146c1.275 0 2.087-0.591 2.087-2.433 C153.503 161.2 152.7 160.7 151.4 160.683z" class="style1"/><path d="M90.958 160.436c-1.868 0-3.071 0.983-3.071 2.925v5.207c0 1.9 1.2 2.9 3 2.9 c1.866 0 3.071-0.982 3.071-2.925v-5.207C93.98 161.4 92.8 160.4 91 160.436z" class="style1"/><path d="M171.246 160.683h-3.144v4.101h3.144c1.28 0 2.09-0.588 2.09-2.062S172.501 160.7 171.2 160.683z" class="style1"/><path d="M110.571 160.436c-1.869 0-3.073 0.983-3.073 2.925v5.207c0 1.9 1.2 2.9 3 2.9 c1.866 0 3.072-0.982 3.072-2.925v-5.207C113.593 161.4 112.4 160.4 110.6 160.436z" class="style1"/><path d="M265.398 96.559h-19.403h-5.349h-5.368H63.893h-5.368h-5.349H33.771v85.7h19.405h5.349h5.368h171.386h5.368 h5.349h19.403V96.559z M146.005 139.698h4.757V114.13h-4.757v-8.027h13.381l15.338 24.675V114.13h-4.755v-8.027h18.729v8.027 h-4.757v33.595h-8.622l-15.34-24.676v16.648h4.758v8.027h-18.732V139.698z M110.628 139.698h4.757V114.13h-4.757v-8.027h18.729 v8.027H124.6v25.568h4.758v8.027h-18.729V139.698z M58.842 119.482v-13.378h36.331v13.378h-9.217v-5.352h-4.341v25.568h5.947v8.027 H66.454v-8.027h5.944V114.13h-4.34v5.352H58.842z M79.037 162.894h-3.809v-2.211h-4.373v3.98h5.48v3.315h-5.48v3.27h2.702v3.316 H65.08v-3.316h1.966v-10.565H65.08v-3.318h13.957V162.894z M97.789 168.567c0 4.129-2.702 6.24-6.879 6.2 c-4.129 0-6.83-2.111-6.83-6.24v-5.207c0-4.128 2.701-6.243 6.879-6.243c4.128 0 6.8 2.1 6.8 6.243V168.567z M117.4 168.6 c0 4.129-2.701 6.24-6.879 6.24c-4.127 0-6.829-2.111-6.829-6.24v-5.207c0-4.128 2.702-6.243 6.88-6.243 c4.127 0 6.8 2.1 6.8 6.243V168.567z M137.577 162.894h-3.809v-2.211h-1.792v10.565h2.456v3.316h-8.723v-3.316h2.458v-10.565 h-1.796v2.211h-3.807v-5.529h15.012V162.894z M151.539 168.838h-3.269v2.41h2.703v3.316h-8.477v-3.316h1.965v-10.565h-1.965v-3.318 h9.043c3.56 0 5.9 1.7 5.9 5.726C157.435 167.1 155.1 168.8 151.5 168.838z M178.349 174.564h-4.767l-3.734-6.462 h-1.745v3.146h1.964v3.316h-7.739v-3.316h1.967v-10.565h-1.967v-3.318h9.042c3.564 0 5.9 1.7 5.9 5.4 c0 2.679-1.229 4.325-3.27 5.013l2.041 3.515h2.31V174.564z M190.786 160.683h-1.967v10.565h1.967v3.316h-7.739v-3.316h1.964 v-10.565h-1.964v-3.318h7.739V160.683z M213.787 160.683h-1.964v13.882h-3.565l-6.339-10.197v6.881h1.964v3.316h-7.737v-3.316 h1.965v-10.565h-1.965v-3.318h5.529l6.337 10.196v-6.878h-1.964v-3.318h7.739V160.683z M233.228 162.894h-3.81v-2.211h-1.792 v10.565h2.457v3.316h-8.722v-3.316h2.457v-10.565h-1.795v2.211h-3.809v-5.529h15.013V162.894z M241.498 114.13h-3.924 l-11.598 18.909v6.659h5.945v8.027h-21.108v-8.027h5.948v-6.659l-11.595-18.909h-3.983v-8.027h18.133v8.027h-3.329l5.888 10.3 l5.946-10.288h-4.46v-8.027h18.137V114.13z" class="style1"/><polygon points="46.6,201.6 46.8,201.6 46.8,187.6 33.8,187.6" class="style1"/><polygon points="252.4,187.6 252.4,201.6 252.6,201.6 265.4,187.6" class="style1"/><path d="M240.646 229.112l-89.324 42.703v-20.619l9.634-9.584c0.679-0.676 0.682-1.775 0.006-2.457 s-1.776-0.688-2.457-0.006l-7.183 7.144v-7.274l5.303-5.305c0.679-0.676 0.679-1.775 0-2.457c-0.679-0.676-1.781-0.676-2.46 0 l-2.843 2.846v-6.731c0-0.96-0.779-1.733-1.738-1.733c-0.958 0-1.736 0.773-1.736 1.733v6.731l-2.815-2.815 c-0.679-0.682-1.779-0.682-2.458 0c-0.676 0.676-0.679 1.8 0 2.46l5.274 5.271v7.274l-6.899-6.861 c-0.682-0.682-1.781-0.676-2.458 0.006c-0.676 0.682-0.673 1.8 0 2.459l9.352 9.3v20.619l-89.323-42.703v-41.486h-5.349 v46.471l96.412 44.711l96.407-44.711v-46.471h-5.349V229.112z" class="style1"/><path d="M155.585 254.663v9.162l79.693-38.096v-38.104H63.893v38.104l79.699 38.102v-9.168 c-7.074-2.476-12.153-9.189-12.153-17.111c0-10.021 8.122-18.15 18.149-18.15c10.025 0 18.1 8.1 18.1 18.1 C167.735 245.5 162.7 252.2 155.6 254.663z M114.995 202.789h-2.915v-0.225c-0.055-1.411-0.959-2.125-2.312-2.125 c-1.429 0-2.351 0.755-2.351 2.237v3.983c0 1.5 0.9 2.2 2.3 2.238c1.428 0 2.348-0.753 2.348-2.238v-0.109h2.915v0.109 c0 3.16-2.068 4.774-5.263 4.774c-3.159 0-5.227-1.614-5.227-4.774v-3.983c0-2.969 1.917-4.774 4.701-4.774 c1.333 0 2.4 0.4 3.1 1.204l0.432-1.015h2.257V202.789z M130.924 206.66c0 3.16-2.067 4.774-5.263 4.8 c-3.157 0-5.226-1.614-5.226-4.774v-3.983c0-3.154 2.068-4.774 5.263-4.774c3.159 0 5.2 1.6 5.2 4.774V206.66z M147.043 202.321h-2.912v-1.693h-3.346v3.045h4.19v2.536h-4.19v2.501h2.067v2.536h-6.483v-2.536h1.5v-8.082h-1.5v-2.536h10.674 V202.321z M162.956 202.321h-2.914v-1.693h-3.343v3.045h4.188v2.536h-4.188v2.501h2.065v2.536h-6.484v-2.536h1.502v-8.082h-1.502 v-2.536h10.676V202.321z M184.141 208.71h1.502v-8.082h-1.502v-2.536h10.676v4.229h-2.911v-1.693h-3.349v2.763h4.191v2.539h-4.191 v2.78h3.349v-1.691h2.911v4.228h-10.676V208.71z M168.209 208.71h1.505v-8.082h-1.505v-2.536h10.679v4.229h-2.917v-1.693h-3.343 v2.763h4.191v2.539h-4.191v2.78h3.343v-1.691h2.917v4.228h-10.679V208.71z" class="style1"/><path d="M125.698 200.439c-1.428 0-2.349 0.755-2.349 2.237v3.983c0 1.5 0.9 2.2 2.3 2.2 c1.428 0 2.352-0.753 2.352-2.238v-3.983C128.013 201.2 127.1 200.4 125.7 200.439z" class="style1"/><path d="M205.076 70.659c1.25 0 2.041-1.261 2.041-2.967v-0.026c0-1.707-0.831-2.996-2.065-2.996 c-1.24 0-2.044 1.249-2.044 2.967v0.029C203.008 69.4 203.8 70.7 205.1 70.659z" class="style1"/><path d="M184.333 70.659c1.246 0 2.04-1.261 2.04-2.967v-0.026c0-1.707-0.832-2.996-2.068-2.996 s-2.043 1.249-2.043 2.967v0.029C182.262 69.4 183.1 70.7 184.3 70.659z" class="style1"/><path d="M63.893 58.043v33.148h171.386V58.043l-85.69-28.347L63.893 58.043z M103.257 72.366h-7.159v-9.402h7.093 v1.838h-5.039v1.908h4.435v1.84h-4.435v1.976h5.105V72.366z M114.57 69.585c0 1.867-1.422 2.915-3.452 2.9 c-1.422 0-2.862-0.498-3.989-1.503l1.221-1.465c0.847 0.7 1.7 1.1 2.8 1.143c0.847 0 1.357-0.337 1.357-0.887v-0.028 c0-0.523-0.322-0.791-1.895-1.195c-1.892-0.484-3.116-1.006-3.116-2.874v-0.027c0-1.706 1.371-2.833 3.292-2.833 c1.371 0 2.5 0.4 3.5 1.195l-1.074 1.558c-0.831-0.578-1.651-0.926-2.443-0.926c-0.793 0-1.211 0.362-1.211 0.819v0.026 c0 0.6 0.4 0.8 2 1.235c1.909 0.5 3 1.2 3 2.822V69.585z M125.963 64.871h-2.863v7.495h-2.067v-7.495h-2.859 v-1.907h7.789V64.871z M143.468 78.322c-6.214-3.871-5.299-11.966-5.299-11.966c-0.781-9.912 6.785-11.428 6.785-11.428 S149.676 82.2 143.5 78.322z M200.885 67.666c0-2.728 1.694-4.863 4.191-4.863c2.484 0 4.2 2.1 4.2 4.834v0.029 c0 2.725-1.681 4.862-4.189 4.862c-2.515 0-4.167-2.11-4.167-4.836V67.666z M194.838 62.896h1.409v9.47h-2.041v-7.375l-1.639 0.4 l-0.43-1.692L194.838 62.896z M180.141 67.666c0-2.728 1.69-4.863 4.192-4.863c2.483 0 4.2 2.1 4.2 4.834v0.029 c0 2.725-1.677 4.862-4.188 4.862s-4.164-2.11-4.164-4.836V67.666z M169.03 70.726l3.133-2.563 c1.165-0.967 1.622-1.479 1.622-2.257c0-0.792-0.522-1.223-1.262-1.223c-0.728 0-1.223 0.403-1.92 1.264l-1.451-1.17 c0.926-1.263 1.825-1.947 3.506-1.947c1.945 0 3.2 1.1 3.2 2.901v0.026c0 1.57-0.804 2.35-2.474 3.64l-1.529 1.182h4.096 v1.787h-6.957V70.726z M155.64 65.278c0 0 1.6 7.987-4.235 12.387c-5.843 4.39-3.526-23.178-3.526-23.178 S155.55 55.3 155.6 65.278z" class="style1"/></g></svg>